<?xml version="1.0" encoding="iso-8859-1"?>
<!-- Generator: Adobe Illustrator 19.0.0, SVG Export Plug-In . SVG Version: 6.00 Build 0)  -->
<svg version="1.1" id="Capa_1" fill = 'white' xmlns="http://www.w3.org/2000/svg" xmlns:xlink="http://www.w3.org/1999/xlink" x="0px" y="0px"
	 viewBox="0 0 512 512" style="enable-background:new 0 0 512 512;" xml:space="preserve">
<g>
	<g>
		<g>
			<path d="M509.501,373.699c-1.6-1.6-3.771-2.499-6.035-2.499h-34.133v-256c-0.015-14.132-11.468-25.585-25.6-25.6H68.267
				c-14.132,0.015-25.585,11.468-25.6,25.6v256H8.533c-2.263-0.001-4.434,0.898-6.035,2.499c-1.6,1.6-2.499,3.771-2.499,6.035
				v13.621c-0.01,8.562,4.27,16.559,11.4,21.3l5.158,3.442c4.204,2.813,9.15,4.311,14.208,4.304h450.467
				c5.055,0.008,9.998-1.489,14.2-4.3l5.158-3.442c7.134-4.74,11.418-12.739,11.408-21.304v-13.621
				C512.001,377.47,511.102,375.299,509.501,373.699z M59.733,115.2c0.005-4.711,3.822-8.529,8.533-8.533h375.467
				c4.711,0.005,8.529,3.822,8.533,8.533v256H59.733V115.2z M30.767,405.333c-1.685,0.001-3.332-0.498-4.733-1.434l-5.175-3.45
				c-2.373-1.58-3.797-4.244-3.792-7.096v-5.088h170.668l12.8,17.067H30.767z M290.134,405.333h-68.269l-12.8-17.067h93.869
				L290.134,405.333z M494.933,393.354c0.005,2.854-1.422,5.521-3.8,7.1l-5.175,3.45c-1.399,0.934-3.043,1.431-4.725,1.429H311.466
				l12.8-17.067h170.668V393.354z"/>
			<path d="M426.667,123.733H85.333c-2.263-0.001-4.434,0.898-6.035,2.499c-1.6,1.6-2.499,3.771-2.499,6.035V345.6
				c-0.001,2.263,0.898,4.434,2.499,6.035c1.6,1.6,3.771,2.499,6.035,2.499h341.333c2.263,0.001,4.434-0.898,6.035-2.499
				c1.6-1.6,2.499-3.771,2.499-6.035V132.267c0.001-2.263-0.898-4.434-2.499-6.035C431.101,124.632,428.93,123.733,426.667,123.733z
				 M418.133,337.067H93.867V140.8h324.267V337.067z"/>
			<path d="M119.467,183.467c2.264,0.003,4.435-0.897,6.033-2.5l8.533-8.533c3.281-3.341,3.256-8.701-0.054-12.012
				s-8.671-3.335-12.012-0.054l-8.533,8.533c-2.44,2.44-3.169,6.11-1.849,9.298C112.905,181.387,116.016,183.466,119.467,183.467z"
				/>
			<path d="M119.467,234.667c2.264,0.003,4.435-0.897,6.033-2.5l59.733-59.733c3.281-3.341,3.256-8.701-0.054-12.012
				c-3.311-3.311-8.671-3.335-12.012-0.054L113.434,220.1c-2.44,2.44-3.169,6.11-1.849,9.298
				C112.905,232.587,116.016,234.666,119.467,234.667z"/>
		</g>
	</g>
</g>
<g>
</g>
<g>
</g>
<g>
</g>
<g>
</g>
<g>
</g>
<g>
</g>
<g>
</g>
<g>
</g>
<g>
</g>
<g>
</g>
<g>
</g>
<g>
</g>
<g>
</g>
<g>
</g>
<g>
</g>
</svg>
