<?xml version="1.0"?>
<svg xmlns="http://www.w3.org/2000/svg" xmlns:xlink="http://www.w3.org/1999/xlink" xmlns:svgjs="http://svgjs.com/svgjs" version="1.1" width="512" height="512" x="0" y="0" viewBox="0 0 511.999 511.999" style="enable-background:new 0 0 512 512" xml:space="preserve" class=""><g>
<path xmlns="http://www.w3.org/2000/svg" style="" d="M483.126,98.869v283.702H29.094V98.869c0-15.531,12.587-28.129,28.118-28.129h397.795  C470.54,70.74,483.126,83.338,483.126,98.869z" fill="#cfdce5" data-original="#cfdce5" class=""/>
<rect xmlns="http://www.w3.org/2000/svg" x="68.428" y="110.074" style="" width="375.364" height="233.158" fill="#623eb3" data-original="#314a5f" class=""/>
<polygon xmlns="http://www.w3.org/2000/svg" style="" points="443.792,110.073 443.792,343.237 232.824,343.237 233.925,340.495 326.811,110.073 " fill="#4b24a1" data-original="#415e72" class=""/>
<path xmlns="http://www.w3.org/2000/svg" style="" d="M503.906,382.571v24.87c0,18.33-14.857,33.187-33.187,33.187H41.501  c-18.33,0-33.187-14.857-33.187-33.187v-24.87H503.906z" fill="#cfdce5" data-original="#cfdce5" class=""/>
<path xmlns="http://www.w3.org/2000/svg" style="" d="M280.36,410.614h-48.5c-13.14,0-23.792-10.652-23.792-23.792v-4.257h96.084v4.257  C304.152,399.962,293.5,410.614,280.36,410.614z" fill="#d9e6ed" data-original="#bac6cc" class=""/>
<path xmlns="http://www.w3.org/2000/svg" d="M113.804,118.595c4.532,0,8.205-3.674,8.205-8.205c0-4.531-3.672-8.205-8.205-8.205H68.318  c-4.532,0-8.205,3.674-8.205,8.205v233.164c0,4.531,3.672,8.205,8.205,8.205h375.364c4.532,0,8.205-3.674,8.205-8.205V110.391  c0-4.531-3.672-8.205-8.205-8.205H141.9c-4.532,0-8.205,3.674-8.205,8.205c0,4.531,3.672,8.205,8.205,8.205h293.576V335.35H76.522  V118.595H113.804z" fill="#000000" data-original="#000000" style="" class=""/>
<path xmlns="http://www.w3.org/2000/svg" d="M503.795,374.678h-12.574V188.523c0-4.531-3.672-8.205-8.205-8.205c-4.532,0-8.205,3.674-8.205,8.205v186.155H37.189V99.186  c0-10.987,8.933-19.925,19.914-19.925h397.795c10.98,0,19.914,8.938,19.914,19.925v61.242c0,4.531,3.672,8.205,8.205,8.205  c4.532,0,8.205-3.674,8.205-8.205V99.186c0-20.035-16.295-36.334-36.323-36.334H57.102c-20.03,0-36.323,16.299-36.323,36.334  v275.492H8.205c-4.532,0-8.205,3.674-8.205,8.205v25.754c0,22.337,18.172,40.51,40.51,40.51h25.674c4.532,0,8.205-3.674,8.205-8.205  c0-4.531-3.672-8.205-8.205-8.205H40.51c-13.288,0-24.1-10.812-24.1-24.1v-17.549l183.597,0.005  c1.955,15.783,15.44,28.043,31.744,28.043h48.499c16.302,0,29.788-12.26,31.744-28.043l183.597-0.005v17.549  c0,13.288-10.812,24.1-24.1,24.1H93.534c-4.532,0-8.205,3.674-8.205,8.205c0,4.531,3.672,8.205,8.205,8.205h377.956  c22.338,0,40.51-18.173,40.51-40.51v-25.754C512,378.352,508.326,374.678,503.795,374.678z M280.25,402.726H231.75  c-7.228,0-13.324-4.947-15.079-11.633h78.657C293.573,397.779,287.477,402.726,280.25,402.726z" fill="#000000" data-original="#000000" style="" class=""/>
<g xmlns="http://www.w3.org/2000/svg">
</g>
<g xmlns="http://www.w3.org/2000/svg">
</g>
<g xmlns="http://www.w3.org/2000/svg">
</g>
<g xmlns="http://www.w3.org/2000/svg">
</g>
<g xmlns="http://www.w3.org/2000/svg">
</g>
<g xmlns="http://www.w3.org/2000/svg">
</g>
<g xmlns="http://www.w3.org/2000/svg">
</g>
<g xmlns="http://www.w3.org/2000/svg">
</g>
<g xmlns="http://www.w3.org/2000/svg">
</g>
<g xmlns="http://www.w3.org/2000/svg">
</g>
<g xmlns="http://www.w3.org/2000/svg">
</g>
<g xmlns="http://www.w3.org/2000/svg">
</g>
<g xmlns="http://www.w3.org/2000/svg">
</g>
<g xmlns="http://www.w3.org/2000/svg">
</g>
<g xmlns="http://www.w3.org/2000/svg">
</g>
</g></svg>
