<?xml version="1.0"?>
<svg xmlns="http://www.w3.org/2000/svg" xmlns:xlink="http://www.w3.org/1999/xlink" xmlns:svgjs="http://svgjs.com/svgjs" version="1.1" width="512" height="512" x="0" y="0" viewBox="0 0 512 512" style="enable-background:new 0 0 512 512" xml:space="preserve" class=""><g><g xmlns="http://www.w3.org/2000/svg"><g><path d="m397.073 249.923c0 27.995 19.712 51.38 46.013 57.046 7.225 1.556 12.352 7.994 12.352 15.385v69.808c0 8.708-7.059 15.767-15.767 15.767h-97.992c-2.772 0-5.284 1.127-7.099 2.941-1.814 1.814-2.941 4.327-2.941 7.099 0 2.852 1.216 5.563 3.34 7.468 9.262 8.295 15.095 20.349 15.095 33.759 0 26.181-22.193 47.179-48.784 45.194-22.323-1.665-40.269-19.781-41.745-42.113-.967-14.656 5.035-27.926 15.015-36.86 1.057-.947 1.884-2.104 2.453-3.37.568-1.266.867-2.662.867-4.078 0-5.543-4.496-10.04-10.04-10.04h-97.992c-8.708 0-15.767-7.059-15.767-15.767v-97.354c0-2.951-1.196-5.623-3.121-7.547-1.934-1.934-4.606-3.131-7.557-3.131-3.041 0-5.912 1.306-7.946 3.549-8.295 9.143-20.259 14.885-33.569 14.885-26.181 0-47.168-22.193-45.194-48.784 1.665-22.323 19.781-40.269 42.114-41.745 14.546-.957 27.737 4.945 36.66 14.796 1.017 1.127 2.243 2.004 3.589 2.612 1.835.823 3.888 1.117 5.963.807 5.283-.789 9.062-5.559 9.062-10.901v-97.01c0-8.708 7.059-15.767 15.767-15.767h97.354c5.897 0 10.678-4.781 10.678-10.678v-1.584c0-3.031-1.306-5.902-3.549-7.946-9.143-8.285-14.885-20.259-14.885-33.569 0-26.181 22.193-47.168 48.784-45.185 22.323 1.655 40.269 19.781 41.745 42.114.957 14.536-4.945 27.737-14.796 36.66-2.243 2.034-3.539 4.905-3.539 7.926v1.585c0 5.897 4.781 10.678 10.678 10.678h97.354c8.708 0 15.767 7.059 15.767 15.767v55.142c0 7.391-5.126 13.828-12.351 15.385-26.304 5.668-46.016 29.061-46.016 57.056z" fill="#4b24a1" data-original="#d9b1ee" style="" class=""/></g><g><path d="m350.069 459.201c0 26.181-22.193 47.178-48.784 45.194-2.203-.17-4.377-.489-6.481-.977 20.219-4.546 35.324-22.612 35.324-44.217 0-13.41-5.832-25.464-15.095-33.759-4.206-3.771-4.408-10.557-.399-14.566 1.815-1.815 4.327-2.941 7.098-2.941h19.94c-2.772 0-5.284 1.126-7.099 2.941-1.815 1.814-2.941 4.327-2.941 7.099 0 2.852 1.216 5.563 3.34 7.468 9.265 8.294 15.097 20.348 15.097 33.758z" fill="#e9d8f3" data-original="#cb97e7" style="" class=""/></g><g><path d="m349.969 49.729c.957 14.536-4.945 27.737-14.796 36.66-2.243 2.034-3.539 4.905-3.539 7.926v1.585c0 5.892 4.786 10.678 10.678 10.678h-19.94c-7.047 0-10.678-5.972-10.678-12.263 0-3.021 1.296-5.892 3.539-7.926 9.85-8.923 15.753-22.124 14.796-36.66-1.326-20.12-16.032-36.829-35.254-41.146 4.277-.967 8.794-1.326 13.45-.977 22.323 1.664 40.269 19.79 41.744 42.123z" fill="#e9d8f3" data-original="#cb97e7" style="" class=""/></g><g><path d="m397.068 249.928c0 27.986 19.721 51.376 46.022 57.039 7.218 1.555 12.343 7.996 12.343 15.384v69.811c0 8.704-7.059 15.773-15.763 15.773h-19.94c8.704 0 15.763-7.069 15.763-15.773v-58.375c0-7.388-5.125-13.829-12.343-15.384-26.301-5.663-45.823-40.1-46.022-68.475-.189-28.295 19.721-67.208 46.022-72.871 7.218-1.565 12.343-7.996 12.343-15.394v-39.322c0-8.704-7.059-15.763-15.763-15.763h19.94c8.704 0 15.763 7.059 15.763 15.763v55.145c0 7.388-5.125 13.829-12.343 15.384-26.301 5.662-46.022 29.062-46.022 57.058z" fill="#e9d8f3" data-original="#cb97e7" style="" class=""/></g><g><path d="m270.402 417.97c0 .356-.073.706-.213 1.019-.15.333-.363.63-.617.858-3.3 2.954-6.221 6.312-8.681 9.98-2.302 3.429-1.386 8.074 2.043 10.375 1.279.858 2.727 1.269 4.159 1.269 2.409 0 4.774-1.162 6.216-3.312 1.768-2.634 3.867-5.047 6.239-7.171 1.83-1.639 3.273-3.618 4.286-5.877.997-2.22 1.524-4.689 1.524-7.141 0-9.66-7.858-17.518-17.517-17.518h-97.993c-4.571 0-8.289-3.719-8.289-8.289v-97.354c0-4.852-1.886-9.41-5.311-12.835-3.431-3.431-7.993-5.321-12.845-5.321-5.111 0-10.026 2.188-13.483 6.002-7.169 7.901-17.386 12.433-28.032 12.433-10.643 0-20.496-4.298-27.741-12.101-7.24-7.796-10.789-17.972-9.997-28.649 1.39-18.63 16.501-33.607 35.147-34.839 11.661-.769 22.821 3.736 30.619 12.345 1.697 1.88 3.736 3.365 6.078 4.423 3.165 1.421 6.669 1.897 10.129 1.381 8.799-1.314 15.435-9.179 15.435-18.297v-97.01c0-4.571 3.718-8.289 8.289-8.289h97.354c10.011 0 18.156-8.145 18.156-18.156v-1.585c0-5.095-2.184-10.006-6.005-13.488-7.899-7.158-12.43-17.374-12.43-28.028 0-10.645 4.299-20.498 12.103-27.742 7.797-7.237 17.971-10.782 28.65-9.986 18.627 1.381 33.603 16.493 34.837 35.148.767 11.656-3.736 22.819-12.357 30.629-3.81 3.455-5.995 8.363-5.995 13.466v1.585c0 10.011 8.145 18.156 18.156 18.156h23.388c4.13 0 7.478-3.348 7.478-7.478s-3.347-7.478-7.478-7.478h-23.388c-1.764 0-3.2-1.436-3.2-3.2v-1.585c0-.891.395-1.761 1.083-2.385 12.023-10.892 18.306-26.453 17.236-42.695-1.721-26.05-22.638-47.149-48.65-49.077-14.871-1.113-29.054 3.84-39.933 13.938-10.731 9.96-16.885 24.067-16.885 38.703 0 14.867 6.321 29.122 17.328 39.097.704.641 1.107 1.522 1.107 2.419v1.585c0 1.765-1.436 3.2-3.2 3.2h-97.354c-12.817 0-23.244 10.427-23.244 23.244v97.01c0 1.74-1.181 3.28-2.69 3.506-.634.095-1.239.016-1.779-.226-.434-.196-.811-.468-1.125-.817-10.891-12.023-26.447-18.303-42.695-17.237-26.038 1.72-47.137 22.636-49.077 48.653-1.104 14.874 3.85 29.056 13.951 39.935 9.96 10.728 24.066 16.88 38.7 16.88 14.855 0 29.109-6.32 39.109-17.341.631-.696 1.508-1.094 2.406-1.094 1.157 0 1.919.59 2.27.941.348.347.93 1.103.93 2.26v97.354c0 12.817 10.427 23.244 23.244 23.244h97.993c1.412 0 2.561 1.149 2.561 2.563z" fill="#000000" data-original="#000000" style="" class=""/><path d="m444.662 200.178c10.577-2.279 18.253-11.823 18.253-22.695v-55.143c0-12.817-10.427-23.244-23.244-23.244h-39.174c-4.13 0-7.478 3.348-7.478 7.478s3.347 7.478 7.478 7.478h39.174c4.57 0 8.289 3.718 8.289 8.289v55.143c0 3.874-2.712 7.27-6.448 8.076-30.083 6.481-51.917 33.551-51.917 64.365 0 30.811 21.834 57.876 51.917 64.356 3.737.805 6.448 4.201 6.448 8.075v69.808c0 4.571-3.718 8.289-8.289 8.289h-97.992c-4.677 0-9.076 1.822-12.386 5.131-3.309 3.309-5.132 7.708-5.132 12.387 0 4.964 2.124 9.715 5.829 13.037 8.011 7.175 12.606 17.449 12.606 28.189 0 10.494-4.413 20.61-12.109 27.752-7.795 7.236-17.959 10.779-28.641 9.985-16.867-1.259-30.938-13.76-34.218-30.4-.797-4.052-4.729-6.691-8.782-5.891-4.051.798-6.689 4.73-5.891 8.782 4.575 23.221 24.222 40.666 47.778 42.423 1.372.103 2.736.153 4.093.153 13.362 0 25.959-4.925 35.835-14.091 10.733-9.963 16.89-24.073 16.89-38.713 0-14.986-6.409-29.321-17.58-39.326-.543-.487-.855-1.18-.855-1.9 0-.923.47-1.531.751-1.811.28-.281.89-.752 1.812-.752h97.992c12.817 0 23.244-10.427 23.244-23.244v-69.808c0-10.872-7.677-20.417-18.255-22.696-23.242-5.006-40.11-25.923-40.11-49.736 0-23.817 16.869-44.738 40.112-49.746z" fill="#000000" data-original="#000000" style="" class=""/></g></g></g></svg>
