<?xml version="1.0" encoding="UTF-8"?>
<svg xmlns="http://www.w3.org/2000/svg" xmlns:xlink="http://www.w3.org/1999/xlink" xmlns:svgjs="http://svgjs.com/svgjs" version="1.1" width="512" height="512" x="0" y="0" viewBox="-114 0 511 511.99833" style="enable-background:new 0 0 512 512" xml:space="preserve" class="">
  <g>
    <path xmlns="http://www.w3.org/2000/svg" d="m229.734375 52.246094c-23.078125-30.210938-56.996094-45.035156-100.800781-44.167969l-2.4375.050781 1.769531 1.675782c.511719.484374.890625.984374 1.160156 1.527343 1.296875 2.625 4.710938 5.789063 9.027344 9.796875 8.710937 8.078125 20.640625 19.148438 19.964844 31.421875-.222657 4 1.707031 7.574219 5.03125 9.328125 10.621093 5.597656 36.652343 22.542969 48.929687 58.960938 8.820313 26.148437 3.019532 55.738281-3.699218 90.003906-7.863282 40.117188-16.773438 85.589844-3.339844 136.128906 1.082031-.265625 1.746094-1.34375 1.515625-2.433594-9.875-47 7.601562-87.984374 24.511719-127.636718 22.871093-53.636719 44.472656-104.300782-1.632813-164.65625zm0 0" fill="#4b24a1" data-original="#ffd500" style="" class=""></path>
    <path xmlns="http://www.w3.org/2000/svg" d="m215.65625 177.507812c29.351562-107.890624-21.589844-151.078124-45.375-164.84375-12.605469-3.347656-26.402344-4.878906-41.347656-4.585937l-2.4375.050781 1.769531 1.675782c.511719.484374.890625.984374 1.160156 1.527343 1.296875 2.625 4.710938 5.789063 9.027344 9.796875 8.710937 8.082032 20.640625 19.148438 19.964844 31.421875-.222657 4.003907 1.707031 7.578125 5.03125 9.328125 10.621093 5.597656 36.652343 22.542969 48.929687 58.964844 6.460938 19.152344 5.070313 40.15625 1.230469 63.492188.722656-2.210938 1.410156-4.484376 2.046875-6.828126zm0 0" fill="#7758b9" data-original="#fbc700" style="" class=""></path>
    <path xmlns="http://www.w3.org/2000/svg" d="m49.019531 24.582031c-2.996093 1.132813-5.125 3.691407-5.691406 6.847657-.570313 3.167968.539063 6.320312 2.96875 8.441406l41.964844 36.570312 18.652343-15.394531c2.820313-2.324219 4.871094-5.40625 5.941407-8.917969 1-3.28125.0625-7.554687-1.019531-12.503906-2.191407-10.03125-4.679688-21.398438 7.445312-29.234375l3.296875-2.128906-3.914063.292969c-28.066406 2.097656-53.363281 9.875-69.644531 16.027343zm0 0" fill="#7758b9" data-original="#fbc700" style="" class=""></path>
    <path xmlns="http://www.w3.org/2000/svg" d="m213.328125 120.523438c-12.285156-36.441407-37.984375-53.507813-49.410156-59.527344-3.078125-1.621094-4.691407-4.921875-4.5-8.390625 1.027343-18.640625-25.25-33.949219-29.09375-41.714844-1.617188-3.257813-5.652344-4.589844-8.878907-2.921875-22.878906 11.832031-6.566406 34.078125-9.546874 43.871094-1.007813 3.308594-2.953126 6.238281-5.617188 8.4375l-22.480469 18.550781c-4.53125 3.738281-8.273437 8.335937-11.019531 13.527344l-6.136719 11.605469c-2.472656 4.679687-5.757812 8.878906-9.707031 12.402343l-32.71875 29.203125c-5.75 5.136719-6.65625 13.796875-2.09375 20.007813l19.882812 22.464843c4.410157 5.996094 17.007813 7.714844 19.183594 4.835938 15.640625-20.691406 31.78125-26.265625 43.707032-27.285156 6.8125-.582032 14.136718-5.839844 18.832031-9.875 2.070312-1.777344 5.269531-.121094 4.980469 2.589844-4.089844 38.40625-72.046876 66.515624-85.113282 137.898437-9.769531 53.375 26.761719 81.769531 26.761719 81.769531h147c-47.886719-107.292968 17.527344-193.523437-4.03125-257.449218zm0 0" fill="#ffffff" data-original="#ffe55a" style="" class=""></path>
    <path xmlns="http://www.w3.org/2000/svg" d="m61.191406 192.875c2.460938-3.257812 4.9375-6.140625 7.40625-8.691406l-16.472656-18.609375c-4.5625-6.210938-3.660156-14.875 2.089844-20.007813l32.722656-29.203125c3.945312-3.523437 7.234375-7.722656 9.707031-12.402343l6.136719-11.609376c2.742188-5.191406 6.488281-9.789062 11.019531-13.523437l22.476563-18.550781c2.667968-2.199219 4.613281-5.132813 5.621094-8.4375 2.070312-6.8125-5.1875-19.65625-2.097657-30.824219-4.421875-4.109375-8.195312-7.539063-9.476562-10.125-1.617188-3.257813-5.652344-4.589844-8.878907-2.921875-22.878906 11.832031-6.566406 34.078125-9.546874 43.871094-1.007813 3.308594-2.953126 6.238281-5.617188 8.4375l-22.480469 18.550781c-4.53125 3.738281-8.273437 8.335937-11.019531 13.527344l-6.136719 11.605469c-2.472656 4.679687-5.757812 8.878906-9.707031 12.402343l-32.71875 29.203125c-5.75 5.136719-6.65625 13.796875-2.09375 20.007813l19.882812 22.464843c4.410157 5.996094 17.007813 7.710938 19.183594 4.835938zm0 0" fill="#4b24a1" data-original="#ffd500" style="" class=""></path>
    <path xmlns="http://www.w3.org/2000/svg" d="m149.871094 180.042969c15.742187-20.878907-22.621094-24.628907-22.621094-24.628907.945312.554688 1.597656 1.597657 1.460938 2.886719-.789063 7.417969-3.976563 14.238281-7.996094 20.457031-19.222656 29.738282-66.453125 59.171876-77.117188 117.441407-9.769531 53.378906 26.761719 81.769531 26.761719 81.769531h30s-36.53125-28.390625-26.761719-81.769531c10.511719-57.429688 56.546875-86.847657 76.273438-116.15625zm0 0" fill="#4b24a1" data-original="#ffd500" style="" class=""></path>
    <path xmlns="http://www.w3.org/2000/svg" d="m241.207031 407.414062v-15.160156c0-8.957031-7.328125-16.285156-16.285156-16.285156h-166.90625c-8.953125 0-16.28125 7.328125-16.28125 16.285156v15.160156zm0 0" fill="#664c9f" data-original="#60b8ff" style="" class=""></path>
    <path xmlns="http://www.w3.org/2000/svg" d="m89.765625 375.96875h-31.75c-8.953125 0-16.28125 7.328125-16.28125 16.28125v15.160156h31.75v-15.160156c0-8.953125 7.328125-16.28125 16.28125-16.28125zm0 0" fill="#4b24a1" data-original="#22a7ff" style="" class=""></path>
    <path xmlns="http://www.w3.org/2000/svg" d="m243.761719 405.414062h-204.582031c-10.976563 0-19.957032 8.980469-19.957032 19.957032v53.394531h244.496094v-53.394531c0-10.976563-8.980469-19.957032-19.957031-19.957032zm0 0" fill="#4b24a1" data-original="#22a7ff" style="" class=""></path>
    <path xmlns="http://www.w3.org/2000/svg" d="m70.929688 405.414062h-31.75c-10.976563 0-19.957032 8.980469-19.957032 19.957032v53.394531h31.75v-53.394531c0-10.976563 8.980469-19.957032 19.957032-19.957032zm0 0" fill="#6946b7" data-original="#0094fd" style="" class=""></path>
    <path xmlns="http://www.w3.org/2000/svg" d="m261.363281 476.765625h-239.789062c-7.578125 0-13.71875 6.144531-13.71875 13.722656s6.140625 13.722657 13.71875 13.722657h239.789062c7.578125 0 13.722657-6.144532 13.722657-13.722657s-6.144532-13.722656-13.722657-13.722656zm0 0" fill="#6946b7" data-original="#0094fd" style="" class=""></path>
    <path xmlns="http://www.w3.org/2000/svg" d="m261.363281 487.210938h-239.785156c-4.367187 0-8.246094-2.046876-10.761719-5.222657-1.847656 2.335938-2.960937 5.285157-2.960937 8.5 0 7.578125 6.144531 13.722657 13.722656 13.722657h239.785156c7.578125 0 13.722657-6.144532 13.722657-13.722657 0-3.214843-1.113282-6.164062-2.960938-8.5-2.515625 3.175781-6.394531 5.222657-10.761719 5.222657zm0 0" fill="#efefef" data-original="#0083fd" style="" class=""></path>
    <path xmlns="http://www.w3.org/2000/svg" d="m271.363281 472v-46.335938c0-13.453124-9.726562-24.667968-22.511719-27.003906v-4.117187c0-13.113281-10.667968-23.78125-23.78125-23.78125h-2.625c-4.769531-11.402344-8.164062-22.996094-8.675781-25.40625-16.921875-75.023438 40.199219-135.558594 48.6875-202.726563.519531-4.105468-2.390625-7.859375-6.5-8.378906-4.105469-.527344-7.863281 2.390625-8.378906 6.5-4.277344 33.808594-22.273437 66.707031-36.054687 102.640625 7.488281-46.265625 21.308593-88.648437 9.054687-124.976563-13.257813-39.324218-41.496094-57.691406-53.023437-63.765624-.414063-.21875-.53125-.859376-.503907-1.339844.792969-14.496094-9.753906-26.007813-20.242187-35.859375 32.507812 2.949219 58.132812 16.445312 76.316406 40.246093 12.761719 16.707032 20.515625 33.183594 23.710938 50.363282.753906 4.074218 4.675781 6.757812 8.742187 6.003906 4.070313-.753906 6.761719-4.671875 6.003906-8.742188-3.632812-19.550781-12.3125-38.105468-26.539062-56.730468-23.953125-31.359375-58.816407-47.101563-103.566407-46.746094-5.15625-2.875-10.035156-2.1875-15.03125.683594-28.082031 2.355468-53.261718 10.097656-69.578124 16.261718-11 4.15625-13.5625 18.542969-4.695313 26.273438l34.730469 30.265625c-4.292969 3.976563-7.859375 8.605469-10.605469 13.808594-6.4375 12.175781-8.128906 16.496093-14.210937 21.921875l-32.71875 29.203125c-9.929688 8.867187-9.183594 23.257812-2.710938 30.574219l19.691406 22.246093c6.492188 8.402344 24.816406 12.75 30.972656 4.605469 11.289063-14.9375 24.199219-23.125 38.363282-24.335938 4.171875-.355468 8.316406-1.917968 12.113281-3.960937-14.90625 29.992187-69.589844 61.054687-81.433594 125.75-6.644531 36.320313 6.398438 61.902344 17.226563 76.0625-10.933594 2.140625-19.210938 11.789063-19.210938 23.339844v4.113281c-12.785156 2.335938-22.511718 13.554688-22.511718 27.003906v46.335938c-6.75 3.558594-11.367188 10.636718-11.367188 18.78125 0 11.699218 9.519531 21.222656 21.222656 21.222656h102.394532c4.140624 0 7.5-3.359375 7.5-7.5 0-4.144531-3.359376-7.5-7.5-7.5h-102.394532c-3.433594 0-6.222656-2.792969-6.222656-6.222656 0-3.433594 2.789062-6.222656 6.222656-6.222656h239.789063c3.429687 0 6.21875 2.789062 6.21875 6.222656 0 3.429687-2.789063 6.222656-6.21875 6.222656h-102.394531c-4.144532 0-7.5 3.355469-7.5 7.5 0 4.140625 3.355468 7.5 7.5 7.5h102.394531c11.699219 0 21.21875-9.523438 21.21875-21.222656 0-8.144532-4.617188-15.21875-11.367188-18.777344zm-219.191406-439.175781c12.425781-4.699219 30.265625-10.367188 50.519531-13.550781-2.167968 8.0625-.351562 16.390624.980469 22.457031.609375 2.777343 1.527344 6.976562 1.195313 8.21875-.582032 1.902343-1.691407 3.574219-3.21875 4.832031l-13.09375 10.804688-36.527344-31.832032c-.320313-.28125-.257813-.777344.144531-.929687zm-1.050781 265.019531c13.585937-74.25 90.359375-99.464844 85.1875-147.355469-.6875-6.355469-8.574219-9.003906-12.957032-4.292969-4.136718 4.449219-12.9375 11.695313-18.949218 12.210938-18.042969 1.546875-34.125 11.179688-47.828125 28.648438-2.519531-.019532-7.0625-1.382813-8.378907-3.171876-.316406-.429687-19.691406-22.289062-20.046874-22.691406-2.097657-3.089844-1.601563-7.230468 1.207031-9.738281l32.71875-29.203125c8.453125-7.546875 11.199219-14.21875 17.480469-26.101562 4.367187-8.261719 7.507812-9.882813 31.640624-29.796876 3.804688-3.136718 6.582032-7.300781 8.019532-12.035156 1.519531-4.984375.285156-10.445312-.886719-15.789062-2.4375-11.15625-3.34375-18.003906 5.878906-23.164063 5.351563 9.238281 28.628907 23.246094 27.867188 37.117188-.363281 6.574219 2.890625 12.488281 8.488281 15.4375 22.730469 11.976562 40.476562 35.125 47.050781 59.421875 15.855469 58.640625-40.867187 141.257812-1.355469 243.417968h-132.96875c-6.878906-6.332031-29.832031-31.050781-22.167968-72.914062zm-1.742188 96.699219c0-4.84375 3.941406-8.78125 8.785156-8.78125h166.90625c4.839844 0 8.78125 3.9375 8.78125 8.78125v3.660156h-184.472656zm-22.511718 31.121093c0-6.871093 5.589843-12.460937 12.457031-12.460937h204.582031c6.867188 0 12.457031 5.589844 12.457031 12.460937v43.894532h-229.496093zm0 0" fill="#000000" data-original="#000000" style="" class=""></path>
  </g>
</svg>
